<mxfile host="app.diagrams.net" modified="2024-07-23T07:01:07.741Z" agent="Mozilla/5.0 (Macintosh; Intel Mac OS X 10_15_7) AppleWebKit/537.36 (KHTML, like Gecko) Chrome/126.0.0.0 Safari/537.36" version="23.1.7" etag="8GRy414Ut4KjSpzltdq8" type="github">
  <diagram name="第 1 页" id="uVrBq4z4UFiI2-FdkQXl">
    <mxGraphModel>
      <root>
        <mxCell id="0" />
        <mxCell id="1" parent="0" />
      </root>
    </mxGraphModel>
  </diagram>
</mxfile>
